<mxfile host="app.diagrams.net" agent="Mozilla/5.0 (Macintosh; Intel Mac OS X 10_15_7) AppleWebKit/537.36 (KHTML, like Gecko) Chrome/135.0.0.0 Safari/537.36" version="26.2.12">
  <diagram name="第 1 页" id="gsCJPo12cD5kt-aYvxFK">
    <mxGraphModel dx="1368" dy="795" grid="1" gridSize="10" guides="1" tooltips="1" connect="1" arrows="1" fold="1" page="1" pageScale="1" pageWidth="2339" pageHeight="3300" math="0" shadow="0">
      <root>
        <mxCell id="0" />
        <mxCell id="1" parent="0" />
        <mxCell id="f7SJwxryUG_pSJBR0R4L-12" value="" style="edgeStyle=orthogonalEdgeStyle;rounded=0;orthogonalLoop=1;jettySize=auto;html=1;" edge="1" parent="1" source="f7SJwxryUG_pSJBR0R4L-1">
          <mxGeometry relative="1" as="geometry">
            <mxPoint x="485" y="310" as="targetPoint" />
          </mxGeometry>
        </mxCell>
        <mxCell id="f7SJwxryUG_pSJBR0R4L-1" value="&lt;b&gt;&lt;font style=&quot;font-size: 18px;&quot;&gt;Data preprocessed&amp;nbsp;&lt;/font&gt;&lt;span style=&quot;font-size: 18px; background-color: transparent; color: light-dark(rgb(0, 0, 0), rgb(255, 255, 255));&quot;&gt;using the GAF algorithm&lt;/span&gt;&lt;/b&gt;" style="text;html=1;align=center;verticalAlign=middle;whiteSpace=wrap;rounded=0;" vertex="1" parent="1">
          <mxGeometry x="293.75" y="220" width="382.5" height="30" as="geometry" />
        </mxCell>
        <mxCell id="f7SJwxryUG_pSJBR0R4L-3" value="&lt;span style=&quot;font-size: 18px;&quot;&gt;Residual Block ✖️ 5&lt;/span&gt;" style="text;html=1;align=center;verticalAlign=middle;whiteSpace=wrap;rounded=0;" vertex="1" parent="1">
          <mxGeometry x="110" y="500" width="210" height="30" as="geometry" />
        </mxCell>
        <mxCell id="f7SJwxryUG_pSJBR0R4L-7" value="" style="edgeStyle=orthogonalEdgeStyle;rounded=0;orthogonalLoop=1;jettySize=auto;html=1;" edge="1" parent="1" source="f7SJwxryUG_pSJBR0R4L-4" target="f7SJwxryUG_pSJBR0R4L-6">
          <mxGeometry relative="1" as="geometry" />
        </mxCell>
        <mxCell id="f7SJwxryUG_pSJBR0R4L-4" value="&lt;div&gt;&lt;span style=&quot;color: light-dark(rgba(0, 0, 0, 0.9), rgb(237, 237, 237)); font-family: &amp;quot;PingFang SC&amp;quot;, -apple-system, BlinkMacSystemFont, &amp;quot;Segoe UI&amp;quot;, Roboto, Ubuntu, &amp;quot;Helvetica Neue&amp;quot;, Helvetica, Arial, &amp;quot;Hiragino Sans GB&amp;quot;, &amp;quot;Microsoft YaHei UI&amp;quot;, &amp;quot;Microsoft YaHei&amp;quot;, &amp;quot;Source Han Sans CN&amp;quot;, sans-serif; font-size: 15px; font-variant-ligatures: inherit; text-align: start; caret-color: light-dark(rgba(0, 0, 0, 0.9), rgb(237, 237, 237)); background-color: transparent;&quot;&gt;&lt;b&gt;Residual Block #1 (of 5)&lt;/b&gt;&lt;/span&gt;&lt;/div&gt;" style="rounded=0;whiteSpace=wrap;html=1;fillColor=#ffe6cc;strokeColor=#d79b00;" vertex="1" parent="1">
          <mxGeometry x="385" y="420" width="200" height="60" as="geometry" />
        </mxCell>
        <mxCell id="f7SJwxryUG_pSJBR0R4L-14" value="" style="edgeStyle=orthogonalEdgeStyle;rounded=0;orthogonalLoop=1;jettySize=auto;html=1;" edge="1" parent="1" source="f7SJwxryUG_pSJBR0R4L-5" target="f7SJwxryUG_pSJBR0R4L-9">
          <mxGeometry relative="1" as="geometry" />
        </mxCell>
        <mxCell id="f7SJwxryUG_pSJBR0R4L-5" value="&lt;div&gt;&lt;span style=&quot;color: light-dark(rgba(0, 0, 0, 0.9), rgb(237, 237, 237)); font-family: &amp;quot;PingFang SC&amp;quot;, -apple-system, BlinkMacSystemFont, &amp;quot;Segoe UI&amp;quot;, Roboto, Ubuntu, &amp;quot;Helvetica Neue&amp;quot;, Helvetica, Arial, &amp;quot;Hiragino Sans GB&amp;quot;, &amp;quot;Microsoft YaHei UI&amp;quot;, &amp;quot;Microsoft YaHei&amp;quot;, &amp;quot;Source Han Sans CN&amp;quot;, sans-serif; font-size: 15px; font-variant-ligatures: inherit; text-align: start; caret-color: light-dark(rgba(0, 0, 0, 0.9), rgb(237, 237, 237)); background-color: transparent;&quot;&gt;&lt;b&gt;Residual Block #5 (of 5)&lt;/b&gt;&lt;/span&gt;&lt;/div&gt;" style="rounded=0;whiteSpace=wrap;html=1;fillColor=#ffe6cc;strokeColor=#d79b00;" vertex="1" parent="1">
          <mxGeometry x="385" y="560" width="200" height="60" as="geometry" />
        </mxCell>
        <mxCell id="f7SJwxryUG_pSJBR0R4L-8" value="" style="edgeStyle=orthogonalEdgeStyle;rounded=0;orthogonalLoop=1;jettySize=auto;html=1;" edge="1" parent="1" source="f7SJwxryUG_pSJBR0R4L-6" target="f7SJwxryUG_pSJBR0R4L-5">
          <mxGeometry relative="1" as="geometry" />
        </mxCell>
        <mxCell id="f7SJwxryUG_pSJBR0R4L-6" value="&lt;font style=&quot;font-size: 16px;&quot;&gt;......&lt;/font&gt;" style="text;html=1;align=center;verticalAlign=middle;whiteSpace=wrap;rounded=0;" vertex="1" parent="1">
          <mxGeometry x="455" y="510" width="60" height="30" as="geometry" />
        </mxCell>
        <mxCell id="f7SJwxryUG_pSJBR0R4L-15" value="" style="edgeStyle=orthogonalEdgeStyle;rounded=0;orthogonalLoop=1;jettySize=auto;html=1;" edge="1" parent="1" source="f7SJwxryUG_pSJBR0R4L-9" target="f7SJwxryUG_pSJBR0R4L-10">
          <mxGeometry relative="1" as="geometry" />
        </mxCell>
        <mxCell id="f7SJwxryUG_pSJBR0R4L-9" value="&lt;div&gt;&lt;span style=&quot;color: light-dark(rgba(0, 0, 0, 0.9), rgb(237, 237, 237)); font-family: &amp;quot;PingFang SC&amp;quot;, -apple-system, BlinkMacSystemFont, &amp;quot;Segoe UI&amp;quot;, Roboto, Ubuntu, &amp;quot;Helvetica Neue&amp;quot;, Helvetica, Arial, &amp;quot;Hiragino Sans GB&amp;quot;, &amp;quot;Microsoft YaHei UI&amp;quot;, &amp;quot;Microsoft YaHei&amp;quot;, &amp;quot;Source Han Sans CN&amp;quot;, sans-serif; font-size: 15px; font-variant-ligatures: inherit; text-align: start; caret-color: light-dark(rgba(0, 0, 0, 0.9), rgb(237, 237, 237)); background-color: transparent;&quot;&gt;&lt;b&gt;Global Average Pooling&lt;/b&gt;&lt;/span&gt;&lt;/div&gt;" style="rounded=0;whiteSpace=wrap;html=1;fillColor=#fff2cc;strokeColor=#d6b656;" vertex="1" parent="1">
          <mxGeometry x="385" y="660" width="200" height="40" as="geometry" />
        </mxCell>
        <mxCell id="f7SJwxryUG_pSJBR0R4L-10" value="&lt;div&gt;&lt;span style=&quot;color: light-dark(rgba(0, 0, 0, 0.9), rgb(237, 237, 237)); font-family: &amp;quot;PingFang SC&amp;quot;, -apple-system, BlinkMacSystemFont, &amp;quot;Segoe UI&amp;quot;, Roboto, Ubuntu, &amp;quot;Helvetica Neue&amp;quot;, Helvetica, Arial, &amp;quot;Hiragino Sans GB&amp;quot;, &amp;quot;Microsoft YaHei UI&amp;quot;, &amp;quot;Microsoft YaHei&amp;quot;, &amp;quot;Source Han Sans CN&amp;quot;, sans-serif; font-size: 15px; font-variant-ligatures: inherit; text-align: start; caret-color: light-dark(rgba(0, 0, 0, 0.9), rgb(237, 237, 237)); background-color: transparent;&quot;&gt;&lt;b&gt;Softmax&lt;/b&gt;&lt;/span&gt;&lt;/div&gt;" style="rounded=0;whiteSpace=wrap;html=1;fillColor=#b1ddf0;strokeColor=#10739e;" vertex="1" parent="1">
          <mxGeometry x="385" y="740" width="200" height="40" as="geometry" />
        </mxCell>
        <mxCell id="f7SJwxryUG_pSJBR0R4L-11" value="&lt;font style=&quot;font-size: 16px;&quot;&gt;&lt;b&gt;(a) GAFNet Architecture&lt;/b&gt;&lt;/font&gt;" style="text;html=1;align=center;verticalAlign=middle;whiteSpace=wrap;rounded=0;" vertex="1" parent="1">
          <mxGeometry x="370" y="800" width="225" height="30" as="geometry" />
        </mxCell>
        <mxCell id="f7SJwxryUG_pSJBR0R4L-16" value="" style="shape=curlyBracket;whiteSpace=wrap;html=1;rounded=1;labelPosition=left;verticalLabelPosition=middle;align=right;verticalAlign=middle;" vertex="1" parent="1">
          <mxGeometry x="310" y="440" width="50" height="150" as="geometry" />
        </mxCell>
        <mxCell id="f7SJwxryUG_pSJBR0R4L-30" value="" style="edgeStyle=orthogonalEdgeStyle;rounded=0;orthogonalLoop=1;jettySize=auto;html=1;" edge="1" parent="1" source="f7SJwxryUG_pSJBR0R4L-17" target="f7SJwxryUG_pSJBR0R4L-18">
          <mxGeometry relative="1" as="geometry" />
        </mxCell>
        <mxCell id="f7SJwxryUG_pSJBR0R4L-17" value="&lt;span style=&quot;font-size: 18px;&quot;&gt;&lt;b&gt;Input Data&lt;/b&gt;&lt;/span&gt;" style="text;html=1;align=center;verticalAlign=middle;whiteSpace=wrap;rounded=0;" vertex="1" parent="1">
          <mxGeometry x="735" y="220" width="210" height="30" as="geometry" />
        </mxCell>
        <mxCell id="f7SJwxryUG_pSJBR0R4L-25" value="" style="edgeStyle=orthogonalEdgeStyle;rounded=0;orthogonalLoop=1;jettySize=auto;html=1;" edge="1" parent="1" source="f7SJwxryUG_pSJBR0R4L-18" target="f7SJwxryUG_pSJBR0R4L-19">
          <mxGeometry relative="1" as="geometry" />
        </mxCell>
        <mxCell id="f7SJwxryUG_pSJBR0R4L-29" value="" style="edgeStyle=orthogonalEdgeStyle;rounded=0;orthogonalLoop=1;jettySize=auto;html=1;entryX=1;entryY=0.5;entryDx=0;entryDy=0;" edge="1" parent="1" source="f7SJwxryUG_pSJBR0R4L-18" target="f7SJwxryUG_pSJBR0R4L-24">
          <mxGeometry relative="1" as="geometry">
            <mxPoint x="860" y="700" as="targetPoint" />
            <Array as="points">
              <mxPoint x="840" y="390" />
              <mxPoint x="1090" y="390" />
              <mxPoint x="1090" y="670" />
            </Array>
          </mxGeometry>
        </mxCell>
        <mxCell id="f7SJwxryUG_pSJBR0R4L-18" value="&lt;div&gt;&lt;span style=&quot;font-family: &amp;quot;PingFang SC&amp;quot;, -apple-system, BlinkMacSystemFont, &amp;quot;Segoe UI&amp;quot;, Roboto, Ubuntu, &amp;quot;Helvetica Neue&amp;quot;, Helvetica, Arial, &amp;quot;Hiragino Sans GB&amp;quot;, &amp;quot;Microsoft YaHei UI&amp;quot;, &amp;quot;Microsoft YaHei&amp;quot;, &amp;quot;Source Han Sans CN&amp;quot;, sans-serif; font-variant-ligatures: inherit; font-weight: 600; color: light-dark(rgba(0, 0, 0, 0.9), rgb(237, 237, 237)); font-size: 15px; text-align: start; caret-color: light-dark(rgba(0, 0, 0, 0.9), rgb(237, 237, 237));&quot;&gt;A stack of m 3×3 convolutional layers with stride 2&lt;/span&gt;&lt;/div&gt;" style="rounded=0;whiteSpace=wrap;html=1;fillColor=#fff2cc;strokeColor=#d6b656;" vertex="1" parent="1">
          <mxGeometry x="690" y="310" width="300" height="60" as="geometry" />
        </mxCell>
        <mxCell id="f7SJwxryUG_pSJBR0R4L-26" value="" style="edgeStyle=orthogonalEdgeStyle;rounded=0;orthogonalLoop=1;jettySize=auto;html=1;" edge="1" parent="1" source="f7SJwxryUG_pSJBR0R4L-19" target="f7SJwxryUG_pSJBR0R4L-20">
          <mxGeometry relative="1" as="geometry" />
        </mxCell>
        <mxCell id="f7SJwxryUG_pSJBR0R4L-19" value="&lt;div&gt;&lt;span style=&quot;font-family: &amp;quot;PingFang SC&amp;quot;, -apple-system, BlinkMacSystemFont, &amp;quot;Segoe UI&amp;quot;, Roboto, Ubuntu, &amp;quot;Helvetica Neue&amp;quot;, Helvetica, Arial, &amp;quot;Hiragino Sans GB&amp;quot;, &amp;quot;Microsoft YaHei UI&amp;quot;, &amp;quot;Microsoft YaHei&amp;quot;, &amp;quot;Source Han Sans CN&amp;quot;, sans-serif; font-variant-ligatures: inherit; font-weight: 600; color: light-dark(rgba(0, 0, 0, 0.9), rgb(237, 237, 237)); font-size: 15px; text-align: start; caret-color: light-dark(rgba(0, 0, 0, 0.9), rgb(237, 237, 237));&quot;&gt;A stack of m/2 3×3 convolutional layers&amp;nbsp;&lt;/span&gt;&lt;/div&gt;" style="rounded=0;whiteSpace=wrap;html=1;fillColor=#ffe6cc;strokeColor=#d79b00;" vertex="1" parent="1">
          <mxGeometry x="690" y="420" width="300" height="60" as="geometry" />
        </mxCell>
        <mxCell id="f7SJwxryUG_pSJBR0R4L-27" value="" style="edgeStyle=orthogonalEdgeStyle;rounded=0;orthogonalLoop=1;jettySize=auto;html=1;" edge="1" parent="1" source="f7SJwxryUG_pSJBR0R4L-20" target="f7SJwxryUG_pSJBR0R4L-24">
          <mxGeometry relative="1" as="geometry" />
        </mxCell>
        <mxCell id="f7SJwxryUG_pSJBR0R4L-20" value="&lt;div&gt;&lt;span style=&quot;font-family: &amp;quot;PingFang SC&amp;quot;, -apple-system, BlinkMacSystemFont, &amp;quot;Segoe UI&amp;quot;, Roboto, Ubuntu, &amp;quot;Helvetica Neue&amp;quot;, Helvetica, Arial, &amp;quot;Hiragino Sans GB&amp;quot;, &amp;quot;Microsoft YaHei UI&amp;quot;, &amp;quot;Microsoft YaHei&amp;quot;, &amp;quot;Source Han Sans CN&amp;quot;, sans-serif; font-variant-ligatures: inherit; font-weight: 600; color: light-dark(rgba(0, 0, 0, 0.9), rgb(237, 237, 237)); font-size: 15px; text-align: start; caret-color: light-dark(rgba(0, 0, 0, 0.9), rgb(237, 237, 237));&quot;&gt;A stack of m 3×3 convolutional layers&amp;nbsp;&lt;/span&gt;&lt;/div&gt;" style="rounded=0;whiteSpace=wrap;html=1;fillColor=#ffe6cc;strokeColor=#d79b00;" vertex="1" parent="1">
          <mxGeometry x="690" y="540" width="300" height="60" as="geometry" />
        </mxCell>
        <mxCell id="f7SJwxryUG_pSJBR0R4L-37" value="" style="edgeStyle=orthogonalEdgeStyle;rounded=0;orthogonalLoop=1;jettySize=auto;html=1;" edge="1" parent="1" source="f7SJwxryUG_pSJBR0R4L-24" target="f7SJwxryUG_pSJBR0R4L-36">
          <mxGeometry relative="1" as="geometry" />
        </mxCell>
        <mxCell id="f7SJwxryUG_pSJBR0R4L-24" value="&lt;font style=&quot;font-size: 18px;&quot;&gt;+&lt;/font&gt;" style="ellipse;whiteSpace=wrap;html=1;aspect=fixed;" vertex="1" parent="1">
          <mxGeometry x="820" y="650" width="40" height="40" as="geometry" />
        </mxCell>
        <mxCell id="f7SJwxryUG_pSJBR0R4L-31" value="&lt;b&gt;&lt;font style=&quot;font-size: 16px;&quot;&gt;(b)&amp;nbsp;&lt;/font&gt;&lt;span style=&quot;caret-color: rgb(0, 0, 0); font-family: -webkit-standard; font-size: medium; text-align: start;&quot;&gt;Residual Block Architecture&lt;/span&gt;&lt;/b&gt;" style="text;html=1;align=center;verticalAlign=middle;whiteSpace=wrap;rounded=0;" vertex="1" parent="1">
          <mxGeometry x="713.75" y="800" width="252.5" height="30" as="geometry" />
        </mxCell>
        <mxCell id="f7SJwxryUG_pSJBR0R4L-33" value="" style="edgeStyle=orthogonalEdgeStyle;rounded=0;orthogonalLoop=1;jettySize=auto;html=1;" edge="1" parent="1" source="f7SJwxryUG_pSJBR0R4L-32" target="f7SJwxryUG_pSJBR0R4L-4">
          <mxGeometry relative="1" as="geometry">
            <Array as="points">
              <mxPoint x="485" y="380" />
              <mxPoint x="485" y="380" />
            </Array>
          </mxGeometry>
        </mxCell>
        <mxCell id="f7SJwxryUG_pSJBR0R4L-32" value="&lt;span style=&quot;white-space-collapse: preserve; caret-color: rgba(0, 0, 0, 0.9); color: rgba(0, 0, 0, 0.9); font-family: &amp;quot;PingFang SC&amp;quot;, -apple-system, BlinkMacSystemFont, &amp;quot;Segoe UI&amp;quot;, Roboto, Ubuntu, &amp;quot;Helvetica Neue&amp;quot;, Helvetica, Arial, &amp;quot;Hiragino Sans GB&amp;quot;, &amp;quot;Microsoft YaHei UI&amp;quot;, &amp;quot;Microsoft YaHei&amp;quot;, &amp;quot;Source Han Sans CN&amp;quot;, sans-serif; font-size: 15px; text-align: start;&quot;&gt;&lt;b&gt;A stack of thirty-two 3×3 convolutional layers&lt;/b&gt;&lt;/span&gt;" style="rounded=0;whiteSpace=wrap;html=1;fillColor=#dae8fc;strokeColor=#6c8ebf;" vertex="1" parent="1">
          <mxGeometry x="370" y="310" width="240" height="60" as="geometry" />
        </mxCell>
        <mxCell id="f7SJwxryUG_pSJBR0R4L-36" value="&lt;span style=&quot;font-size: 18px;&quot;&gt;&lt;b&gt;Input Data&lt;/b&gt;&lt;/span&gt;" style="text;html=1;align=center;verticalAlign=middle;whiteSpace=wrap;rounded=0;" vertex="1" parent="1">
          <mxGeometry x="735" y="750" width="210" height="30" as="geometry" />
        </mxCell>
      </root>
    </mxGraphModel>
  </diagram>
</mxfile>
